<svg xmlns="http://www.w3.org/2000/svg" width="48.705" height="30.206" viewBox="0 0 48.705 30.206">
  <g id="_Group_" transform="translate(0 0)">
    <rect id="Rectangle_1503" data-name="Rectangle 1503" width="13.125" height="23.664" transform="translate(17.73 3.211)" fill="#ff5f00"/>
    <path id="_Path_" d="M216.974,193.1a15.385,15.385,0,0,1,5.775-11.92,15.089,15.089,0,1,0-.175,23.664A15.153,15.153,0,0,1,216.974,193.1Z" transform="translate(-198.368 -177.968)" fill="#eb001b"/>
    <path id="Path_1075" data-name="Path 1075" d="M236.625,193.024a15.062,15.062,0,0,1-15.05,15.075,14.848,14.848,0,0,1-9.275-3.155,15.064,15.064,0,0,0,2.45-21.21,16.222,16.222,0,0,0-2.45-2.454,15.2,15.2,0,0,1,21.175,2.454,15.634,15.634,0,0,1,3.15,9.29Z" transform="translate(-187.92 -177.893)" fill="#f79e1b"/>
    <path id="Path_1076" data-name="Path 1076" d="M225.45,192.2v-.526h.175V191.5H225.1v.175h.175l.175.526Zm1.05,0v-.526h-.175l-.175.351-.175-.351H225.8v.526h.175v-.526l.175.351h.175l.175-.351v.526Z" transform="translate(-178.32 -167.78)" fill="#f79e1b"/>
  </g>
</svg>
