<svg xmlns="http://www.w3.org/2000/svg" xmlns:xlink="http://www.w3.org/1999/xlink" width="164.811" height="48.621" viewBox="0 0 164.811 48.621">
  <defs>
    <linearGradient id="linear-gradient" x1="0.062" y1="0.504" x2="0.943" y2="0.486" gradientUnits="objectBoundingBox">
      <stop offset="0" stop-color="#286fe1"/>
      <stop offset="1" stop-color="#3884fe"/>
    </linearGradient>
    <linearGradient id="linear-gradient-2" x1="0" y1="0.5" x2="1" y2="0.5" xlink:href="#linear-gradient"/>
  </defs>
  <g id="Group_442" data-name="Group 442" transform="translate(-522.705 -408.843)">
    <g id="Group_425" data-name="Group 425" transform="translate(518.854 408.163)">
      <g id="Group_476" data-name="Group 476">
        <path id="Subtraction_1" data-name="Subtraction 1" d="M2966.1-144.541a3.052,3.052,0,0,1-.787-.1l-24.873-6.646a5.2,5.2,0,0,1-3.715-4.669v-6.619l32.3,8.558v7.232A3.038,3.038,0,0,1,2966.1-144.541ZM2969.029-156h0l-32.3-8.833v-15.5a5.626,5.626,0,0,1,1.281-3.3,5.057,5.057,0,0,1,2.435-1.745l24.873-7.69a3.041,3.041,0,0,1,.787-.1,3.035,3.035,0,0,1,2.927,2.249v16.635c.041,1.587-1.174,2.815-3.714,3.752l-4,1.236,4,1.068a6.271,6.271,0,0,1,2.6,1.4,3.434,3.434,0,0,1,1.11,2.527v8.3Z" transform="translate(-2931.619 193.843)" fill="url(#linear-gradient)"/>
        <path id="Path_1066" data-name="Path 1066" d="M3.335,1.663l28.848.02c.637,0,.323,0,.773.008a2.573,2.573,0,0,1-.48,1.086,5.887,5.887,0,0,1-.835,1.008,10.1,10.1,0,0,1-2.084,1.567c-.99.64-2.039,1.291-2.8,1.767L4.808,7.16C3.133,7.16.74,5.16.294,3.434A4.684,4.684,0,0,1,.022,2.021,6.249,6.249,0,0,1,.261,0C.22.317.667.9,1.451,1.257A6.265,6.265,0,0,0,3.335,1.663Z" transform="matrix(0.966, 0.259, -0.259, 0.966, 5.704, 10.75)" fill="#255fbc"/>
      </g>
      <path id="Path_1068" data-name="Path 1068" d="M20.6-113.786v-8.492h6.9a8.616,8.616,0,0,0,8.758-8.947c0-5.27-3.26-8.72-8.758-8.72H17.6v26.16Zm6.71-23.43c3.867,0,5.839,2.237,5.839,5.99-.076,3.715-2.54,6.218-5.8,6.218H20.6v-12.208ZM39.4-132.363h.227c.493-3.829,3.071-5.5,6.407-5.5,2.654,0,5.687,1.63,5.687,5.99,0,6.483-6.938,10.843-13.762,15.392v2.692H55.474v-2.654H41.94c7.052-4.587,12.739-8.834,12.739-15.62,0-5.232-3.867-8.341-8.53-8.341s-8.644,2.464-8.985,7.469Zm29.837-7.848L56.195-122.088v2.123h13.5v6.18h2.843v-6.18h4.474v-2.464H72.535V-140.21ZM59.266-122.43l10.426-14.52v14.52ZM78.184-126.9c0,8,4.512,13.573,12.018,13.573a11.336,11.336,0,0,0,9.251-4.284v3.829h2.616v-13.648H91.415v2.654h7.734v2.123c0,4.095-4.891,6.483-8.606,6.483-5.763,0-9.326-4.322-9.326-10.729,0-6.483,3.185-10.767,9.4-10.767,4.549,0,7.7,2.275,8.189,6.369l2.843-.531c-.607-6.142-5.27-8.568-11.07-8.568C82.089-140.4,78.184-134.41,78.184-126.9Zm29.42.038c0-6.142,3.185-10.805,9.668-10.805,6.445,0,9.63,4.663,9.63,10.805s-3.185,10.805-9.63,10.805C110.789-116.06,107.6-120.723,107.6-126.865Zm-3.109,0c0,7.582,4.322,13.535,12.776,13.535,8.379,0,12.739-5.952,12.739-13.535S125.65-140.4,117.272-140.4C108.817-140.4,104.5-134.448,104.5-126.865Z" transform="translate(38.652 150.719)" fill="none"/>
    </g>
    <path id="Path_1072" data-name="Path 1072" d="M15.6-137.859V-112h1.971v-12.018h4.512c5.459,0,8.606-2.388,8.606-6.938,0-4.436-3.147-6.9-8.227-6.9Zm1.971,1.782h4.549c4.284,0,6.521,1.668,6.521,5.08,0,3.45-2.161,5.194-6.521,5.194H17.571ZM38.84-138.2a9.733,9.733,0,0,0-6.256,2.313v2.388a8.494,8.494,0,0,1,6.1-2.806,5.414,5.414,0,0,1,5.687,5.8c0,5.535-5.232,11.26-12.132,18.35V-112h15.62v-1.9H36.148c6.559-6.9,10.236-11.45,10.236-16.833A7.145,7.145,0,0,0,38.84-138.2Zm9.592,16.606H60.261V-112h1.934v-9.592h3.45v-1.782h-3.45V-138.2H61.36L48.432-122.694Zm2.654-1.782,9.175-10.957v10.957Zm38.329-12.7a20.129,20.129,0,0,0-8.8-2.123c-8.265,0-13.686,6.066-13.686,13.421,0,6.635,4.549,13.118,13.8,13.118a20.175,20.175,0,0,0,9.213-2.123v-10.54H81.833v2.5H87.1v6.293a16.384,16.384,0,0,1-6.369,1.327c-6.445,0-10.843-4.474-10.843-10.843A10.411,10.411,0,0,1,80.506-135.66a17.894,17.894,0,0,1,8.909,2.54Zm16.833-2.123a13.051,13.051,0,0,0-13.535,13.421,13.025,13.025,0,0,0,13.421,13.118c8.53,0,13.838-6.142,13.838-13.383C119.973-132.21,114.513-138.2,106.248-138.2Zm.152,2.692a10.378,10.378,0,0,1,10.615,10.54c0,4.663-3.147,10.615-10.843,10.615a10.352,10.352,0,0,1-10.54-10.54A10.362,10.362,0,0,1,106.4-135.508Z" transform="translate(554.833 557.668)" fill="url(#linear-gradient-2)"/>
  </g>
</svg>
