<svg id="Group_1" data-name="Group 1" xmlns="http://www.w3.org/2000/svg" width="20" height="15" viewBox="0 0 20 15">
  <path id="Path_1065" data-name="Path 1065" d="M316,181.841a2.61,2.61,0,0,0,2.562,2.641h4.32V179.2h-4.337A2.607,2.607,0,0,0,316,181.841Zm4.046-.064a1.34,1.34,0,1,1-1.339-1.38A1.357,1.357,0,0,1,320.046,181.777Z" transform="translate(-302.899 -174.35)" fill="#1e4bc6"/>
  <path id="Path_1066" data-name="Path 1066" d="M15.647,76.662a3.472,3.472,0,0,1,0-6.94h4.333v-2.06a1.936,1.936,0,0,0-1.9-1.962H1.9A1.936,1.936,0,0,0,0,67.662V78.738A1.936,1.936,0,0,0,1.9,80.7H18.1A1.936,1.936,0,0,0,20,78.738V76.662Z" transform="translate(0 -65.7)" fill="#1e4bc6"/>
</svg>
