<svg xmlns="http://www.w3.org/2000/svg" width="32.017" height="19" viewBox="0 0 32.017 19">
  <path id="path2828" d="M11.843,18.973a15.125,15.125,0,0,1-9.376-3.942,8.208,8.208,0,0,1-2.35-4.2,7.622,7.622,0,0,1,0-2.664A9.091,9.091,0,0,1,4.288,2.523a17.465,17.465,0,0,1,18.148.039,10.427,10.427,0,0,1,1.729,1.416,9.621,9.621,0,0,1,1.892,2.64.406.406,0,0,0,.234.116,2.914,2.914,0,0,1,1.233.72,7.568,7.568,0,0,1,1.11,1.458c.58.877,3.206,4.932,3.366,5.2.062.1-.061.269-.2.269-.1,0-.168-.065-.313-.294-.1-.161-.772-1.2-1.489-2.31-2.534-3.925-2.672-4.107-3.378-4.46l-.371-.186h-1.09c-1.088,0-1.09,0-1.116.115-.145.628-.171.782-.14.811s.639.371,1.374.783l1.338.749-.084.175c-.046.1-.1.175-.117.175s-1.144-.623-2.5-1.385-2.547-1.407-2.644-1.434a.9.9,0,0,0-.979.706c0,.39.116.5,2.5,2.457A32.2,32.2,0,0,1,25.261,12.4a5.784,5.784,0,0,1,.7,1.35,2.733,2.733,0,0,0,2.052,1.825l.341.085-.029.186a.89.89,0,0,1-.049.209,3.582,3.582,0,0,1-1.126-.359,3.221,3.221,0,0,1-1.466-1.46c0-.005-.246.078-.54.185a2.038,2.038,0,0,0-1.04.688,14.919,14.919,0,0,1-8.761,3.809,31.911,31.911,0,0,1-3.5.049Zm3.625-.632a16.546,16.546,0,0,0,4.323-1.108,12.342,12.342,0,0,0,3.7-2.312l.37-.351-.932-.445c-1-.476-1.093-.554-1.221-.98a.852.852,0,0,1,.265-.829l.2-.215-.432-.328c-.342-.26-.449-.373-.515-.545a.867.867,0,0,1,.1-.823l.131-.185L20.1,9.98c-.751-.132-1.451-.265-1.555-.3a.77.77,0,0,1-.467-.522c-.029-.123.64-3.389.79-3.855a.894.894,0,0,1,.568-.5,42.2,42.2,0,0,1,4.45.782.767.767,0,0,1,.317.941l-.042.191h.223c.122,0,.412-.015.644-.033l.421-.033-.209-.388a9.788,9.788,0,0,0-3.186-3.3,17.2,17.2,0,0,0-2.91-1.433,18.023,18.023,0,0,0-4.059-.9,25.747,25.747,0,0,0-3.522,0,16.977,16.977,0,0,0-4.825,1.2C3.455,3.242,1.248,5.56.683,8.2a7.6,7.6,0,0,0-.024,2.527,7.571,7.571,0,0,0,2.013,3.708A14.346,14.346,0,0,0,12.1,18.431,33.431,33.431,0,0,0,15.468,18.341Zm-.723-2.486a.743.743,0,0,1-.455-.534c-.028-.151.006-.256.223-.675A10.576,10.576,0,0,0,15.768,9.5,10.41,10.41,0,0,0,14.594,4.55a5.15,5.15,0,0,1-.327-.755.768.768,0,0,1,.316-.547.715.715,0,0,1,.784.055,3.705,3.705,0,0,1,.4.658A12.509,12.509,0,0,1,16.98,7.768a14.936,14.936,0,0,1,.05,3.165,12.447,12.447,0,0,1-1.148,3.88c-.358.741-.583,1.046-.771,1.046a.557.557,0,0,0-.137.021.562.562,0,0,1-.23-.026ZM12.308,14.58a.667.667,0,0,1-.449-.764c.022-.07.169-.391.328-.714A7.966,7.966,0,0,0,13,8.832a7.709,7.709,0,0,0-.858-3.019c-.358-.732-.375-.845-.167-1.14a.681.681,0,0,1,.952-.088,8.776,8.776,0,0,1,.955,2,9.479,9.479,0,0,1-.31,6.692C13.1,14.375,12.774,14.716,12.308,14.58ZM9.8,13.288a.759.759,0,0,1-.406-.5c-.028-.126.02-.265.25-.73a5.354,5.354,0,0,0,.028-5.023C9.306,6.3,9.3,6.157,9.6,5.868a.483.483,0,0,1,.428-.168c.356,0,.541.179.859.833a6.346,6.346,0,0,1,.688,3,6.1,6.1,0,0,1-.712,3c-.3.607-.448.767-.747.809a.7.7,0,0,1-.324-.048Zm-2.344-1.2a.79.79,0,0,1-.381-.454c-.058-.2-.011-.364.22-.742A2.165,2.165,0,0,0,7.657,9.5a2.165,2.165,0,0,0-.365-1.385,2.729,2.729,0,0,1-.224-.44A.671.671,0,0,1,7.6,6.9c.3-.057.514.079.794.516a3.948,3.948,0,0,1,0,4.21c-.286.443-.6.6-.94.461ZM24.916,14.05a5.267,5.267,0,0,0,.521-.2,1.231,1.231,0,0,0-.116-.385c-.163-.4-.136-.393-.713-.283a1.829,1.829,0,0,1-1.667-.489,1.538,1.538,0,0,0-.426-.249.49.49,0,0,0-.236.159.515.515,0,0,0-.059.654,10.286,10.286,0,0,0,2.04.971,2.947,2.947,0,0,0,.657-.172Zm-.27-1.311c.254-.051.282-.069.238-.15s-2.418-2.057-2.623-2.177a.321.321,0,0,0-.448.075c-.411.441-.363.534.7,1.351C23.8,12.823,23.939,12.881,24.646,12.739Zm-3.18-2.977c0-.012-.269-.244-.6-.514-.811-.668-.985-.917-.985-1.411A1.22,1.22,0,0,1,20.6,6.8a1.289,1.289,0,0,1,.834-.076c.157.052.864.435,1.845,1l.207.119.17-.808c.174-.827.178-1.044.016-1.094-.049-.015-.995-.187-2.1-.382-1.965-.346-2.179-.366-2.271-.218-.049.079-.8,3.543-.8,3.691a.3.3,0,0,0,.083.2,11.135,11.135,0,0,0,1.417.308C21.422,9.79,21.466,9.8,21.466,9.762Z" transform="translate(0 0)" fill="#1e4bc6"/>
</svg>
